<svg preserveAspectRatio="none" width="100%" height="100%" overflow="visible" style="display: block;" viewBox="0 0 203.429 68.0002" fill="none" xmlns="http://www.w3.org/2000/svg">
<g id="Group">
<path id="Vector" d="M187.229 0.000221H16.209C15.5856 0.000221 14.9697 0.000221 14.3479 0.003621C13.8275 0.007021 13.3112 0.016898 12.7857 0.025211C11.6442 0.0386441 10.5053 0.139071 9.37907 0.325618C8.25439 0.516226 7.16494 0.875578 6.14757 1.39152C5.13145 1.91182 4.20299 2.58791 3.39587 3.39524C2.58451 4.2003 1.90819 5.13085 1.3929 6.15109C0.87618 7.16931 0.517889 8.26042 0.330395 9.38674C0.141119 10.5116 0.0392672 11.6495 0.025755 12.7901C0.009979 13.3114 0.008313 13.8343 0 14.3556V53.6498C0.008313 54.1777 0.009979 54.6891 0.025755 55.2171C0.0392714 56.3576 0.141123 57.4955 0.330395 58.6203C0.517371 59.7473 0.875684 60.839 1.3929 61.8576C1.90795 62.8746 2.58438 63.8013 3.39587 64.6019C4.19993 65.4128 5.12899 66.0894 6.14757 66.6057C7.16494 67.123 8.25427 67.4845 9.37907 67.6781C10.5055 67.8631 11.6442 67.9636 12.7857 67.9786C13.3112 67.9902 13.8275 67.9968 14.3479 67.9968C14.9696 68.0002 15.5856 68.0002 16.209 68.0002H187.229C187.84 68.0002 188.461 68.0002 189.072 67.9968C189.59 67.9968 190.121 67.9902 190.639 67.9786C191.778 67.9644 192.915 67.8639 194.039 67.6781C195.168 67.4832 196.261 67.1218 197.283 66.6057C198.301 66.0891 199.229 65.4126 200.032 64.6019C200.842 63.7982 201.52 62.8721 202.041 61.8576C202.554 60.8383 202.909 59.7466 203.094 58.6203C203.283 57.4953 203.389 56.3577 203.409 55.2171C203.416 54.6891 203.416 54.1777 203.416 53.6498C203.429 53.0322 203.429 52.418 203.429 51.7904V16.2116C203.429 15.5891 203.429 14.9715 203.416 14.3556C203.416 13.8343 203.416 13.3114 203.409 12.7901C203.389 11.6493 203.283 10.5117 203.094 9.38667C202.909 8.261 202.554 7.16998 202.041 6.15102C200.992 4.10605 199.328 2.44146 197.283 1.39136C196.261 0.876686 195.167 0.51743 194.039 0.325465C192.915 0.138096 191.779 0.0376342 190.639 0.024973C190.121 0.016677 189.59 0.006715 189.072 0.0034C188.461 0 187.84 0.000221 187.229 0.000221Z" fill="var(--fill-0, #A6A6A6)"/>
<path id="Vector_2" d="M14.3563 66.5125C13.8383 66.5125 13.3329 66.5059 12.819 66.4943C11.7544 66.4804 10.6923 66.3878 9.64144 66.217C8.66155 66.0483 7.71229 65.7343 6.82498 65.2856C5.94582 64.8406 5.14394 64.2571 4.45008 63.5574C3.74618 62.866 3.16015 62.064 2.71522 61.1833C2.26538 60.2969 1.95406 59.3468 1.79212 58.3661C1.61723 57.3123 1.52261 56.2467 1.50907 55.1786C1.49829 54.8201 1.48418 53.6263 1.48418 53.6263V14.3554C1.48418 14.3554 1.49921 13.18 1.50915 12.8347C1.52212 11.7682 1.61619 10.7043 1.79055 9.65214C1.9528 8.66872 2.26436 7.71587 2.71444 6.82657C3.15774 5.9465 3.74051 5.14396 4.44017 4.45006C5.13905 3.74956 5.94349 3.16303 6.82415 2.71186C7.70942 2.26456 8.65688 1.95285 9.6348 1.78716C10.6891 1.61472 11.7549 1.52149 12.8232 1.50826L14.3571 1.4875H189.064L190.616 1.50909C191.674 1.52167 192.731 1.61406 193.775 1.78549C194.763 1.95326 195.72 2.26715 196.616 2.71684C198.38 3.62608 199.816 5.06458 200.721 6.83072C201.164 7.71388 201.471 8.65896 201.631 9.63388C201.808 10.6947 201.906 11.767 201.927 12.8421C201.931 13.3236 201.931 13.8407 201.931 14.3554C201.945 14.9929 201.945 15.5997 201.945 16.2114V51.7902C201.945 52.4078 201.945 53.0104 201.931 53.618C201.931 54.1708 201.931 54.6773 201.925 55.1985C201.905 56.2545 201.808 57.3076 201.634 58.3494C201.476 59.3372 201.166 60.2948 200.716 61.1884C200.268 62.0596 199.686 62.8545 198.99 63.5441C198.295 64.2476 197.492 64.8345 196.611 65.2824C195.718 65.7346 194.762 66.0497 193.775 66.217C192.724 66.3887 191.662 66.4814 190.598 66.4943C190.1 66.5059 189.578 66.5125 189.072 66.5125L187.229 66.5159L14.3563 66.5125Z" fill="var(--fill-0, black)"/>
</g>
</svg>
